<svg xmlns="http://www.w3.org/2000/svg" version="1.1" xmlns:xlink="http://www.w3.org/1999/xlink" xmlns:svgjs="http://svgjs.com/svgjs" width="1440" height="560" preserveAspectRatio="none" viewBox="0 0 1440 560"><g mask="url(&quot;#SvgjsMask1076&quot;)" fill="none"><rect width="1440" height="560" x="0" y="0" fill="url(#SvgjsLinearGradient1077)"></rect><path d="M-89.82 348.64L-89.82 348.64" stroke="#132e65" stroke-width="1.5"></path><path d="M-89.82 348.64L78.98 406.56" stroke="#132e65" stroke-width="1.5"></path><path d="M-89.82 348.64L-75.19 558.23" stroke="#132e65" stroke-width="1.5"></path><path d="M-75.19 558.23L-75.19 558.23" stroke="#132e65" stroke-width="1.5"></path><path d="M-75.19 558.23L-43.42 651.72" stroke="#132e65" stroke-width="1.5"></path><path d="M-75.19 558.23L79.23 555.49" stroke="#132e65" stroke-width="1.5"></path><path d="M-43.42 651.72L-43.42 651.72" stroke="#132e65" stroke-width="1.5"></path><path d="M-43.42 651.72L79.23 555.49" stroke="#132e65" stroke-width="1.5"></path><path d="M78.98 406.56L78.98 406.56" stroke="#132e65" stroke-width="1.5"></path><path d="M78.98 406.56L192.36 373.79" stroke="#132e65" stroke-width="1.5"></path><path d="M78.98 406.56L79.23 555.49" stroke="#132e65" stroke-width="1.5"></path><path d="M79.23 555.49L79.23 555.49" stroke="#132e65" stroke-width="1.5"></path><path d="M79.23 555.49L205.66 505.72" stroke="#132e65" stroke-width="1.5"></path><path d="M192.36 373.79L192.36 373.79" stroke="#132e65" stroke-width="1.5"></path><path d="M192.36 373.79L205.66 505.72" stroke="#132e65" stroke-width="1.5"></path><path d="M192.36 373.79L79.23 555.49" stroke="#132e65" stroke-width="1.5"></path><path d="M192.36 373.79L337.7 531.76" stroke="#132e65" stroke-width="1.5"></path><path d="M192.36 373.79L-89.82 348.64" stroke="#132e65" stroke-width="1.5"></path><path d="M192.36 373.79L234.11 662.49" stroke="#132e65" stroke-width="1.5"></path><path d="M205.66 505.72L205.66 505.72" stroke="#132e65" stroke-width="1.5"></path><path d="M205.66 505.72L337.7 531.76" stroke="#132e65" stroke-width="1.5"></path><path d="M234.11 662.49L234.11 662.49" stroke="#132e65" stroke-width="1.5"></path><path d="M234.11 662.49L386.49 678.62" stroke="#132e65" stroke-width="1.5"></path><path d="M234.11 662.49L205.66 505.72" stroke="#132e65" stroke-width="1.5"></path><path d="M234.11 662.49L337.7 531.76" stroke="#132e65" stroke-width="1.5"></path><path d="M337.7 531.76L337.7 531.76" stroke="#132e65" stroke-width="1.5"></path><path d="M337.7 531.76L386.49 678.62" stroke="#132e65" stroke-width="1.5"></path><path d="M337.7 531.76L551.77 524.57" stroke="#132e65" stroke-width="1.5"></path><path d="M386.49 678.62L386.49 678.62" stroke="#132e65" stroke-width="1.5"></path><path d="M386.49 678.62L542.72 709.94" stroke="#132e65" stroke-width="1.5"></path><path d="M386.49 678.62L551.77 524.57" stroke="#132e65" stroke-width="1.5"></path><path d="M386.49 678.62L205.66 505.72" stroke="#132e65" stroke-width="1.5"></path><path d="M531.54 362.58L531.54 362.58" stroke="#132e65" stroke-width="1.5"></path><path d="M531.54 362.58L551.77 524.57" stroke="#132e65" stroke-width="1.5"></path><path d="M531.54 362.58L337.7 531.76" stroke="#132e65" stroke-width="1.5"></path><path d="M531.54 362.58L836.05 379.93" stroke="#132e65" stroke-width="1.5"></path><path d="M551.77 524.57L551.77 524.57" stroke="#132e65" stroke-width="1.5"></path><path d="M551.77 524.57L542.72 709.94" stroke="#132e65" stroke-width="1.5"></path><path d="M551.77 524.57L658.46 693.49" stroke="#132e65" stroke-width="1.5"></path><path d="M542.72 709.94L542.72 709.94" stroke="#132e65" stroke-width="1.5"></path><path d="M542.72 709.94L658.46 693.49" stroke="#132e65" stroke-width="1.5"></path><path d="M542.72 709.94L798.84 658.19" stroke="#132e65" stroke-width="1.5"></path><path d="M658.46 693.49L658.46 693.49" stroke="#132e65" stroke-width="1.5"></path><path d="M658.46 693.49L798.84 658.19" stroke="#132e65" stroke-width="1.5"></path><path d="M658.46 693.49L846.26 537.13" stroke="#132e65" stroke-width="1.5"></path><path d="M658.46 693.49L386.49 678.62" stroke="#132e65" stroke-width="1.5"></path><path d="M815.22 208.43L815.22 208.43" stroke="#132e65" stroke-width="1.5"></path><path d="M815.22 208.43L836.05 379.93" stroke="#132e65" stroke-width="1.5"></path><path d="M815.22 208.43L989.59 258.29" stroke="#132e65" stroke-width="1.5"></path><path d="M815.22 208.43L978.88 345.77" stroke="#132e65" stroke-width="1.5"></path><path d="M815.22 208.43L1002.5 81.47" stroke="#132e65" stroke-width="1.5"></path><path d="M815.22 208.43L1113.04 213.32" stroke="#132e65" stroke-width="1.5"></path><path d="M836.05 379.93L836.05 379.93" stroke="#132e65" stroke-width="1.5"></path><path d="M836.05 379.93L978.88 345.77" stroke="#132e65" stroke-width="1.5"></path><path d="M836.05 379.93L944.46 492.12" stroke="#132e65" stroke-width="1.5"></path><path d="M836.05 379.93L846.26 537.13" stroke="#132e65" stroke-width="1.5"></path><path d="M836.05 379.93L989.59 258.29" stroke="#132e65" stroke-width="1.5"></path><path d="M846.26 537.13L846.26 537.13" stroke="#132e65" stroke-width="1.5"></path><path d="M846.26 537.13L944.46 492.12" stroke="#132e65" stroke-width="1.5"></path><path d="M846.26 537.13L798.84 658.19" stroke="#132e65" stroke-width="1.5"></path><path d="M846.26 537.13L971.08 662.7" stroke="#132e65" stroke-width="1.5"></path><path d="M846.26 537.13L978.88 345.77" stroke="#132e65" stroke-width="1.5"></path><path d="M798.84 658.19L798.84 658.19" stroke="#132e65" stroke-width="1.5"></path><path d="M798.84 658.19L971.08 662.7" stroke="#132e65" stroke-width="1.5"></path><path d="M798.84 658.19L944.46 492.12" stroke="#132e65" stroke-width="1.5"></path><path d="M1002.5 81.47L1002.5 81.47" stroke="#132e65" stroke-width="1.5"></path><path d="M1002.5 81.47L1097.21 76.45" stroke="#132e65" stroke-width="1.5"></path><path d="M1002.5 81.47L1113.04 213.32" stroke="#132e65" stroke-width="1.5"></path><path d="M1002.5 81.47L989.59 258.29" stroke="#132e65" stroke-width="1.5"></path><path d="M989.59 258.29L989.59 258.29" stroke="#132e65" stroke-width="1.5"></path><path d="M989.59 258.29L978.88 345.77" stroke="#132e65" stroke-width="1.5"></path><path d="M989.59 258.29L1113.04 213.32" stroke="#132e65" stroke-width="1.5"></path><path d="M978.88 345.77L978.88 345.77" stroke="#132e65" stroke-width="1.5"></path><path d="M978.88 345.77L944.46 492.12" stroke="#132e65" stroke-width="1.5"></path><path d="M978.88 345.77L1128.27 410.21" stroke="#132e65" stroke-width="1.5"></path><path d="M978.88 345.77L1113.04 213.32" stroke="#132e65" stroke-width="1.5"></path><path d="M978.88 345.77L1115.07 491.66" stroke="#132e65" stroke-width="1.5"></path><path d="M944.46 492.12L944.46 492.12" stroke="#132e65" stroke-width="1.5"></path><path d="M944.46 492.12L1115.07 491.66" stroke="#132e65" stroke-width="1.5"></path><path d="M944.46 492.12L971.08 662.7" stroke="#132e65" stroke-width="1.5"></path><path d="M971.08 662.7L971.08 662.7" stroke="#132e65" stroke-width="1.5"></path><path d="M1123.15 -59.56L1123.15 -59.56" stroke="#132e65" stroke-width="1.5"></path><path d="M1123.15 -59.56L1097.21 76.45" stroke="#132e65" stroke-width="1.5"></path><path d="M1123.15 -59.56L1301.79 -57.02" stroke="#132e65" stroke-width="1.5"></path><path d="M1123.15 -59.56L1002.5 81.47" stroke="#132e65" stroke-width="1.5"></path><path d="M1097.21 76.45L1097.21 76.45" stroke="#132e65" stroke-width="1.5"></path><path d="M1097.21 76.45L1113.04 213.32" stroke="#132e65" stroke-width="1.5"></path><path d="M1097.21 76.45L1287.9 93.98" stroke="#132e65" stroke-width="1.5"></path><path d="M1113.04 213.32L1113.04 213.32" stroke="#132e65" stroke-width="1.5"></path><path d="M1113.04 213.32L1251.66 250.17" stroke="#132e65" stroke-width="1.5"></path><path d="M1128.27 410.21L1128.27 410.21" stroke="#132e65" stroke-width="1.5"></path><path d="M1128.27 410.21L1115.07 491.66" stroke="#132e65" stroke-width="1.5"></path><path d="M1128.27 410.21L1272.14 400.76" stroke="#132e65" stroke-width="1.5"></path><path d="M1128.27 410.21L1239.23 555.38" stroke="#132e65" stroke-width="1.5"></path><path d="M1128.27 410.21L1113.04 213.32" stroke="#132e65" stroke-width="1.5"></path><path d="M1128.27 410.21L944.46 492.12" stroke="#132e65" stroke-width="1.5"></path><path d="M1115.07 491.66L1115.07 491.66" stroke="#132e65" stroke-width="1.5"></path><path d="M1115.07 491.66L1239.23 555.38" stroke="#132e65" stroke-width="1.5"></path><path d="M1115.07 491.66L1154.33 655.4" stroke="#132e65" stroke-width="1.5"></path><path d="M1154.33 655.4L1154.33 655.4" stroke="#132e65" stroke-width="1.5"></path><path d="M1154.33 655.4L1239.23 555.38" stroke="#132e65" stroke-width="1.5"></path><path d="M1154.33 655.4L1291.53 668.13" stroke="#132e65" stroke-width="1.5"></path><path d="M1301.79 -57.02L1301.79 -57.02" stroke="#132e65" stroke-width="1.5"></path><path d="M1301.79 -57.02L1415.39 -43.9" stroke="#132e65" stroke-width="1.5"></path><path d="M1301.79 -57.02L1287.9 93.98" stroke="#132e65" stroke-width="1.5"></path><path d="M1287.9 93.98L1287.9 93.98" stroke="#132e65" stroke-width="1.5"></path><path d="M1287.9 93.98L1410.7 83.96" stroke="#132e65" stroke-width="1.5"></path><path d="M1287.9 93.98L1251.66 250.17" stroke="#132e65" stroke-width="1.5"></path><path d="M1287.9 93.98L1415.39 -43.9" stroke="#132e65" stroke-width="1.5"></path><path d="M1251.66 250.17L1251.66 250.17" stroke="#132e65" stroke-width="1.5"></path><path d="M1251.66 250.17L1272.14 400.76" stroke="#132e65" stroke-width="1.5"></path><path d="M1251.66 250.17L1393.07 394.14" stroke="#132e65" stroke-width="1.5"></path><path d="M1251.66 250.17L1128.27 410.21" stroke="#132e65" stroke-width="1.5"></path><path d="M1251.66 250.17L1410.7 83.96" stroke="#132e65" stroke-width="1.5"></path><path d="M1272.14 400.76L1272.14 400.76" stroke="#132e65" stroke-width="1.5"></path><path d="M1272.14 400.76L1393.07 394.14" stroke="#132e65" stroke-width="1.5"></path><path d="M1272.14 400.76L1239.23 555.38" stroke="#132e65" stroke-width="1.5"></path><path d="M1239.23 555.38L1239.23 555.38" stroke="#132e65" stroke-width="1.5"></path><path d="M1239.23 555.38L1291.53 668.13" stroke="#132e65" stroke-width="1.5"></path><path d="M1291.53 668.13L1291.53 668.13" stroke="#132e65" stroke-width="1.5"></path><path d="M1291.53 668.13L1397.58 711.64" stroke="#132e65" stroke-width="1.5"></path><path d="M1291.53 668.13L1446.89 550.63" stroke="#132e65" stroke-width="1.5"></path><path d="M1415.39 -43.9L1415.39 -43.9" stroke="#132e65" stroke-width="1.5"></path><path d="M1415.39 -43.9L1410.7 83.96" stroke="#132e65" stroke-width="1.5"></path><path d="M1415.39 -43.9L1596.62 -86.01" stroke="#132e65" stroke-width="1.5"></path><path d="M1415.39 -43.9L1587.89 87.11" stroke="#132e65" stroke-width="1.5"></path><path d="M1410.7 83.96L1410.7 83.96" stroke="#132e65" stroke-width="1.5"></path><path d="M1410.7 83.96L1587.89 87.11" stroke="#132e65" stroke-width="1.5"></path><path d="M1410.7 83.96L1301.79 -57.02" stroke="#132e65" stroke-width="1.5"></path><path d="M1410.7 83.96L1587.05 221.59" stroke="#132e65" stroke-width="1.5"></path><path d="M1393.07 394.14L1393.07 394.14" stroke="#132e65" stroke-width="1.5"></path><path d="M1393.07 394.14L1446.89 550.63" stroke="#132e65" stroke-width="1.5"></path><path d="M1393.07 394.14L1604.7 381.15" stroke="#132e65" stroke-width="1.5"></path><path d="M1393.07 394.14L1239.23 555.38" stroke="#132e65" stroke-width="1.5"></path><path d="M1393.07 394.14L1586.85 557.47" stroke="#132e65" stroke-width="1.5"></path><path d="M1446.89 550.63L1446.89 550.63" stroke="#132e65" stroke-width="1.5"></path><path d="M1446.89 550.63L1586.85 557.47" stroke="#132e65" stroke-width="1.5"></path><path d="M1446.89 550.63L1397.58 711.64" stroke="#132e65" stroke-width="1.5"></path><path d="M1446.89 550.63L1554.33 706.11" stroke="#132e65" stroke-width="1.5"></path><path d="M1397.58 711.64L1397.58 711.64" stroke="#132e65" stroke-width="1.5"></path><path d="M1397.58 711.64L1554.33 706.11" stroke="#132e65" stroke-width="1.5"></path><path d="M1596.62 -86.01L1596.62 -86.01" stroke="#132e65" stroke-width="1.5"></path><path d="M1596.62 -86.01L1587.89 87.11" stroke="#132e65" stroke-width="1.5"></path><path d="M1587.89 87.11L1587.89 87.11" stroke="#132e65" stroke-width="1.5"></path><path d="M1587.89 87.11L1587.05 221.59" stroke="#132e65" stroke-width="1.5"></path><path d="M1587.05 221.59L1587.05 221.59" stroke="#132e65" stroke-width="1.5"></path><path d="M1587.05 221.59L1604.7 381.15" stroke="#132e65" stroke-width="1.5"></path><path d="M1587.05 221.59L1393.07 394.14" stroke="#132e65" stroke-width="1.5"></path><path d="M1587.05 221.59L1596.62 -86.01" stroke="#132e65" stroke-width="1.5"></path><path d="M1604.7 381.15L1604.7 381.15" stroke="#132e65" stroke-width="1.5"></path><path d="M1604.7 381.15L1586.85 557.47" stroke="#132e65" stroke-width="1.5"></path><path d="M1604.7 381.15L1446.89 550.63" stroke="#132e65" stroke-width="1.5"></path><path d="M1604.7 381.15L1587.89 87.11" stroke="#132e65" stroke-width="1.5"></path><path d="M1604.7 381.15L1554.33 706.11" stroke="#132e65" stroke-width="1.5"></path><path d="M1586.85 557.47L1586.85 557.47" stroke="#132e65" stroke-width="1.5"></path><path d="M1586.85 557.47L1554.33 706.11" stroke="#132e65" stroke-width="1.5"></path><path d="M1586.85 557.47L1397.58 711.64" stroke="#132e65" stroke-width="1.5"></path><path d="M1554.33 706.11L1554.33 706.11" stroke="#132e65" stroke-width="1.5"></path><path d="M1554.33 706.11L1291.53 668.13" stroke="#132e65" stroke-width="1.5"></path><circle r="5" cx="-89.82" cy="348.64" fill="#132e65"></circle><circle r="5" cx="-75.19" cy="558.23" fill="#132e65"></circle><circle r="5" cx="-43.42" cy="651.72" fill="#132e65"></circle><circle r="5" cx="78.98" cy="406.56" fill="#132e65"></circle><circle r="5" cx="79.23" cy="555.49" fill="#132e65"></circle><circle r="5" cx="192.36" cy="373.79" fill="#132e65"></circle><circle r="5" cx="205.66" cy="505.72" fill="#132e65"></circle><circle r="5" cx="234.11" cy="662.49" fill="#132e65"></circle><circle r="5" cx="337.7" cy="531.76" fill="#132e65"></circle><circle r="5" cx="386.49" cy="678.62" fill="#132e65"></circle><circle r="5" cx="531.54" cy="362.58" fill="#132e65"></circle><circle r="5" cx="551.77" cy="524.57" fill="#132e65"></circle><circle r="5" cx="542.72" cy="709.94" fill="#132e65"></circle><circle r="5" cx="658.46" cy="693.49" fill="#132e65"></circle><circle r="5" cx="815.22" cy="208.43" fill="#132e65"></circle><circle r="5" cx="836.05" cy="379.93" fill="#132e65"></circle><circle r="5" cx="846.26" cy="537.13" fill="#132e65"></circle><circle r="5" cx="798.84" cy="658.19" fill="#132e65"></circle><circle r="5" cx="1002.5" cy="81.47" fill="#132e65"></circle><circle r="5" cx="989.59" cy="258.29" fill="#132e65"></circle><circle r="5" cx="978.88" cy="345.77" fill="#132e65"></circle><circle r="5" cx="944.46" cy="492.12" fill="#132e65"></circle><circle r="5" cx="971.08" cy="662.7" fill="#132e65"></circle><circle r="5" cx="1123.15" cy="-59.56" fill="#132e65"></circle><circle r="5" cx="1097.21" cy="76.45" fill="#132e65"></circle><circle r="5" cx="1113.04" cy="213.32" fill="#132e65"></circle><circle r="5" cx="1128.27" cy="410.21" fill="#132e65"></circle><circle r="5" cx="1115.07" cy="491.66" fill="#132e65"></circle><circle r="5" cx="1154.33" cy="655.4" fill="#132e65"></circle><circle r="5" cx="1301.79" cy="-57.02" fill="#132e65"></circle><circle r="5" cx="1287.9" cy="93.98" fill="#132e65"></circle><circle r="5" cx="1251.66" cy="250.17" fill="#132e65"></circle><circle r="5" cx="1272.14" cy="400.76" fill="#132e65"></circle><circle r="5" cx="1239.23" cy="555.38" fill="#132e65"></circle><circle r="5" cx="1291.53" cy="668.13" fill="#132e65"></circle><circle r="5" cx="1415.39" cy="-43.9" fill="#132e65"></circle><circle r="5" cx="1410.7" cy="83.96" fill="#132e65"></circle><circle r="5" cx="1393.07" cy="394.14" fill="#132e65"></circle><circle r="5" cx="1446.89" cy="550.63" fill="#132e65"></circle><circle r="5" cx="1397.58" cy="711.64" fill="#132e65"></circle><circle r="5" cx="1596.62" cy="-86.01" fill="#132e65"></circle><circle r="5" cx="1587.89" cy="87.11" fill="#132e65"></circle><circle r="5" cx="1587.05" cy="221.59" fill="#132e65"></circle><circle r="5" cx="1604.7" cy="381.15" fill="#132e65"></circle><circle r="5" cx="1586.85" cy="557.47" fill="#132e65"></circle><circle r="5" cx="1554.33" cy="706.11" fill="#132e65"></circle><path d="M-98.05 705.14L-98.05 705.14" stroke="hsl(228.5, 77.2%, 51.5%)" stroke-width="1.5"></path><path d="M-98.05 705.14L60.31 700.3" stroke="hsl(228.5, 77.2%, 51.5%)" stroke-width="1.5"></path><path d="M-98.05 705.14L-56.23 514.44" stroke="hsl(228.5, 77.2%, 51.5%)" stroke-width="1.5"></path><path d="M359.83 488.42L359.83 488.42" stroke="hsl(228.5, 77.2%, 51.5%)" stroke-width="1.5"></path><path d="M359.83 488.42L199.56 550.5" stroke="hsl(228.5, 77.2%, 51.5%)" stroke-width="1.5"></path><path d="M359.83 488.42L401.99 667.7" stroke="hsl(228.5, 77.2%, 51.5%)" stroke-width="1.5"></path><path d="M359.83 488.42L543.83 540.94" stroke="hsl(228.5, 77.2%, 51.5%)" stroke-width="1.5"></path><path d="M359.83 488.42L189.65 682.3" stroke="hsl(228.5, 77.2%, 51.5%)" stroke-width="1.5"></path><path d="M678.77 530.6L678.77 530.6" stroke="hsl(228.5, 77.2%, 51.5%)" stroke-width="1.5"></path><path d="M678.77 530.6L543.83 540.94" stroke="hsl(228.5, 77.2%, 51.5%)" stroke-width="1.5"></path><path d="M678.77 530.6L646.27 393.51" stroke="hsl(228.5, 77.2%, 51.5%)" stroke-width="1.5"></path><path d="M1006.03 382.4L1006.03 382.4" stroke="hsl(228.5, 77.2%, 51.5%)" stroke-width="1.5"></path><path d="M1006.03 382.4L1098.65 351" stroke="hsl(228.5, 77.2%, 51.5%)" stroke-width="1.5"></path><path d="M1006.03 382.4L999.73 497.71" stroke="hsl(228.5, 77.2%, 51.5%)" stroke-width="1.5"></path><path d="M1006.03 382.4L1005.71 252.37" stroke="hsl(228.5, 77.2%, 51.5%)" stroke-width="1.5"></path><path d="M1006.03 382.4L1116.92 496.61" stroke="hsl(228.5, 77.2%, 51.5%)" stroke-width="1.5"></path><path d="M1100.81 688.32L1100.81 688.32" stroke="hsl(228.5, 77.2%, 51.5%)" stroke-width="1.5"></path><path d="M1100.81 688.32L981.27 693.84" stroke="hsl(228.5, 77.2%, 51.5%)" stroke-width="1.5"></path><path d="M1100.81 688.32L1279.85 704.39" stroke="hsl(228.5, 77.2%, 51.5%)" stroke-width="1.5"></path><path d="M1100.81 688.32L1116.92 496.61" stroke="hsl(228.5, 77.2%, 51.5%)" stroke-width="1.5"></path><path d="M1257.49 217.37L1257.49 217.37" stroke="hsl(228.5, 77.2%, 51.5%)" stroke-width="1.5"></path><path d="M1257.49 217.37L1285.62 109.27" stroke="hsl(228.5, 77.2%, 51.5%)" stroke-width="1.5"></path><path d="M1257.49 217.37L1239.37 390.22" stroke="hsl(228.5, 77.2%, 51.5%)" stroke-width="1.5"></path><path d="M1415.05 -105.51L1415.05 -105.51" stroke="hsl(228.5, 77.2%, 51.5%)" stroke-width="1.5"></path><path d="M1415.05 -105.51L1275.26 -62.59" stroke="hsl(228.5, 77.2%, 51.5%)" stroke-width="1.5"></path><path d="M1438.98 257.69L1438.98 257.69" stroke="hsl(228.5, 77.2%, 51.5%)" stroke-width="1.5"></path><path d="M1438.98 257.69L1553.42 231.81" stroke="hsl(228.5, 77.2%, 51.5%)" stroke-width="1.5"></path><path d="M1438.98 257.69L1423.99 378.76" stroke="hsl(228.5, 77.2%, 51.5%)" stroke-width="1.5"></path><path d="M1438.98 257.69L1435.88 106.21" stroke="hsl(228.5, 77.2%, 51.5%)" stroke-width="1.5"></path><path d="M1438.98 257.69L1583.43 358.3" stroke="hsl(228.5, 77.2%, 51.5%)" stroke-width="1.5"></path><path d="M1438.98 257.69L1257.49 217.37" stroke="hsl(228.5, 77.2%, 51.5%)" stroke-width="1.5"></path><path d="M1421.21 520.56L1421.21 520.56" stroke="hsl(228.5, 77.2%, 51.5%)" stroke-width="1.5"></path><path d="M1421.21 520.56L1423.99 378.76" stroke="hsl(228.5, 77.2%, 51.5%)" stroke-width="1.5"></path><path d="M1421.21 520.56L1443.05 663.12" stroke="hsl(228.5, 77.2%, 51.5%)" stroke-width="1.5"></path><path d="M1421.21 520.56L1567.81 519.21" stroke="hsl(228.5, 77.2%, 51.5%)" stroke-width="1.5"></path><path d="M-56.23 514.44L-56.23 514.44" stroke="hsl(228.5, 77.2%, 51.5%)" stroke-width="1.5"></path><path d="M-56.23 514.44L85.41 536.09" stroke="hsl(228.5, 77.2%, 51.5%)" stroke-width="1.5"></path><path d="M-56.23 514.44L60.31 700.3" stroke="hsl(228.5, 77.2%, 51.5%)" stroke-width="1.5"></path><path d="M-56.23 514.44L199.56 550.5" stroke="hsl(228.5, 77.2%, 51.5%)" stroke-width="1.5"></path><path d="M85.41 536.09L85.41 536.09" stroke="hsl(228.5, 77.2%, 51.5%)" stroke-width="1.5"></path><path d="M85.41 536.09L199.56 550.5" stroke="hsl(228.5, 77.2%, 51.5%)" stroke-width="1.5"></path><path d="M85.41 536.09L60.31 700.3" stroke="hsl(228.5, 77.2%, 51.5%)" stroke-width="1.5"></path><path d="M85.41 536.09L189.65 682.3" stroke="hsl(228.5, 77.2%, 51.5%)" stroke-width="1.5"></path><path d="M85.41 536.09L-98.05 705.14" stroke="hsl(228.5, 77.2%, 51.5%)" stroke-width="1.5"></path><path d="M85.41 536.09L359.83 488.42" stroke="hsl(228.5, 77.2%, 51.5%)" stroke-width="1.5"></path><path d="M60.31 700.3L60.31 700.3" stroke="hsl(228.5, 77.2%, 51.5%)" stroke-width="1.5"></path><path d="M60.31 700.3L189.65 682.3" stroke="hsl(228.5, 77.2%, 51.5%)" stroke-width="1.5"></path><path d="M199.56 550.5L199.56 550.5" stroke="hsl(228.5, 77.2%, 51.5%)" stroke-width="1.5"></path><path d="M199.56 550.5L189.65 682.3" stroke="hsl(228.5, 77.2%, 51.5%)" stroke-width="1.5"></path><path d="M189.65 682.3L189.65 682.3" stroke="hsl(228.5, 77.2%, 51.5%)" stroke-width="1.5"></path><path d="M189.65 682.3L401.99 667.7" stroke="hsl(228.5, 77.2%, 51.5%)" stroke-width="1.5"></path><path d="M189.65 682.3L-98.05 705.14" stroke="hsl(228.5, 77.2%, 51.5%)" stroke-width="1.5"></path><path d="M401.99 667.7L401.99 667.7" stroke="hsl(228.5, 77.2%, 51.5%)" stroke-width="1.5"></path><path d="M401.99 667.7L543.83 540.94" stroke="hsl(228.5, 77.2%, 51.5%)" stroke-width="1.5"></path><path d="M401.99 667.7L199.56 550.5" stroke="hsl(228.5, 77.2%, 51.5%)" stroke-width="1.5"></path><path d="M543.83 540.94L543.83 540.94" stroke="hsl(228.5, 77.2%, 51.5%)" stroke-width="1.5"></path><path d="M543.83 540.94L646.27 393.51" stroke="hsl(228.5, 77.2%, 51.5%)" stroke-width="1.5"></path><path d="M543.83 540.94L695.59 675.08" stroke="hsl(228.5, 77.2%, 51.5%)" stroke-width="1.5"></path><path d="M543.83 540.94L826.09 493.67" stroke="hsl(228.5, 77.2%, 51.5%)" stroke-width="1.5"></path><path d="M646.27 393.51L646.27 393.51" stroke="hsl(228.5, 77.2%, 51.5%)" stroke-width="1.5"></path><path d="M646.27 393.51L811.73 338.23" stroke="hsl(228.5, 77.2%, 51.5%)" stroke-width="1.5"></path><path d="M646.27 393.51L826.09 493.67" stroke="hsl(228.5, 77.2%, 51.5%)" stroke-width="1.5"></path><path d="M695.59 675.08L695.59 675.08" stroke="hsl(228.5, 77.2%, 51.5%)" stroke-width="1.5"></path><path d="M695.59 675.08L678.77 530.6" stroke="hsl(228.5, 77.2%, 51.5%)" stroke-width="1.5"></path><path d="M695.59 675.08L845.62 689.32" stroke="hsl(228.5, 77.2%, 51.5%)" stroke-width="1.5"></path><path d="M811.73 338.23L811.73 338.23" stroke="hsl(228.5, 77.2%, 51.5%)" stroke-width="1.5"></path><path d="M811.73 338.23L826.09 493.67" stroke="hsl(228.5, 77.2%, 51.5%)" stroke-width="1.5"></path><path d="M811.73 338.23L1006.03 382.4" stroke="hsl(228.5, 77.2%, 51.5%)" stroke-width="1.5"></path><path d="M811.73 338.23L1005.71 252.37" stroke="hsl(228.5, 77.2%, 51.5%)" stroke-width="1.5"></path><path d="M811.73 338.23L678.77 530.6" stroke="hsl(228.5, 77.2%, 51.5%)" stroke-width="1.5"></path><path d="M811.73 338.23L999.73 497.71" stroke="hsl(228.5, 77.2%, 51.5%)" stroke-width="1.5"></path><path d="M826.09 493.67L826.09 493.67" stroke="hsl(228.5, 77.2%, 51.5%)" stroke-width="1.5"></path><path d="M826.09 493.67L678.77 530.6" stroke="hsl(228.5, 77.2%, 51.5%)" stroke-width="1.5"></path><path d="M826.09 493.67L999.73 497.71" stroke="hsl(228.5, 77.2%, 51.5%)" stroke-width="1.5"></path><path d="M826.09 493.67L845.62 689.32" stroke="hsl(228.5, 77.2%, 51.5%)" stroke-width="1.5"></path><path d="M845.62 689.32L845.62 689.32" stroke="hsl(228.5, 77.2%, 51.5%)" stroke-width="1.5"></path><path d="M845.62 689.32L981.27 693.84" stroke="hsl(228.5, 77.2%, 51.5%)" stroke-width="1.5"></path><path d="M845.62 689.32L678.77 530.6" stroke="hsl(228.5, 77.2%, 51.5%)" stroke-width="1.5"></path><path d="M845.62 689.32L999.73 497.71" stroke="hsl(228.5, 77.2%, 51.5%)" stroke-width="1.5"></path><path d="M845.62 689.32L1100.81 688.32" stroke="hsl(228.5, 77.2%, 51.5%)" stroke-width="1.5"></path><path d="M1005.71 252.37L1005.71 252.37" stroke="hsl(228.5, 77.2%, 51.5%)" stroke-width="1.5"></path><path d="M1005.71 252.37L1098.65 351" stroke="hsl(228.5, 77.2%, 51.5%)" stroke-width="1.5"></path><path d="M1005.71 252.37L999.73 497.71" stroke="hsl(228.5, 77.2%, 51.5%)" stroke-width="1.5"></path><path d="M1005.71 252.37L1257.49 217.37" stroke="hsl(228.5, 77.2%, 51.5%)" stroke-width="1.5"></path><path d="M999.73 497.71L999.73 497.71" stroke="hsl(228.5, 77.2%, 51.5%)" stroke-width="1.5"></path><path d="M999.73 497.71L1116.92 496.61" stroke="hsl(228.5, 77.2%, 51.5%)" stroke-width="1.5"></path><path d="M981.27 693.84L981.27 693.84" stroke="hsl(228.5, 77.2%, 51.5%)" stroke-width="1.5"></path><path d="M981.27 693.84L999.73 497.71" stroke="hsl(228.5, 77.2%, 51.5%)" stroke-width="1.5"></path><path d="M981.27 693.84L1116.92 496.61" stroke="hsl(228.5, 77.2%, 51.5%)" stroke-width="1.5"></path><path d="M981.27 693.84L826.09 493.67" stroke="hsl(228.5, 77.2%, 51.5%)" stroke-width="1.5"></path><path d="M1160.04 45.11L1160.04 45.11" stroke="hsl(228.5, 77.2%, 51.5%)" stroke-width="1.5"></path><path d="M1160.04 45.11L1285.62 109.27" stroke="hsl(228.5, 77.2%, 51.5%)" stroke-width="1.5"></path><path d="M1160.04 45.11L1275.26 -62.59" stroke="hsl(228.5, 77.2%, 51.5%)" stroke-width="1.5"></path><path d="M1160.04 45.11L1257.49 217.37" stroke="hsl(228.5, 77.2%, 51.5%)" stroke-width="1.5"></path><path d="M1160.04 45.11L1005.71 252.37" stroke="hsl(228.5, 77.2%, 51.5%)" stroke-width="1.5"></path><path d="M1160.04 45.11L1435.88 106.21" stroke="hsl(228.5, 77.2%, 51.5%)" stroke-width="1.5"></path><path d="M1160.04 45.11L1415.05 -105.51" stroke="hsl(228.5, 77.2%, 51.5%)" stroke-width="1.5"></path><path d="M1098.65 351L1098.65 351" stroke="hsl(228.5, 77.2%, 51.5%)" stroke-width="1.5"></path><path d="M1098.65 351L1239.37 390.22" stroke="hsl(228.5, 77.2%, 51.5%)" stroke-width="1.5"></path><path d="M1098.65 351L1116.92 496.61" stroke="hsl(228.5, 77.2%, 51.5%)" stroke-width="1.5"></path><path d="M1098.65 351L999.73 497.71" stroke="hsl(228.5, 77.2%, 51.5%)" stroke-width="1.5"></path><path d="M1116.92 496.61L1116.92 496.61" stroke="hsl(228.5, 77.2%, 51.5%)" stroke-width="1.5"></path><path d="M1275.26 -62.59L1275.26 -62.59" stroke="hsl(228.5, 77.2%, 51.5%)" stroke-width="1.5"></path><path d="M1275.26 -62.59L1285.62 109.27" stroke="hsl(228.5, 77.2%, 51.5%)" stroke-width="1.5"></path><path d="M1275.26 -62.59L1435.88 106.21" stroke="hsl(228.5, 77.2%, 51.5%)" stroke-width="1.5"></path><path d="M1275.26 -62.59L1257.49 217.37" stroke="hsl(228.5, 77.2%, 51.5%)" stroke-width="1.5"></path><path d="M1285.62 109.27L1285.62 109.27" stroke="hsl(228.5, 77.2%, 51.5%)" stroke-width="1.5"></path><path d="M1285.62 109.27L1435.88 106.21" stroke="hsl(228.5, 77.2%, 51.5%)" stroke-width="1.5"></path><path d="M1285.62 109.27L1438.98 257.69" stroke="hsl(228.5, 77.2%, 51.5%)" stroke-width="1.5"></path><path d="M1239.37 390.22L1239.37 390.22" stroke="hsl(228.5, 77.2%, 51.5%)" stroke-width="1.5"></path><path d="M1239.37 390.22L1116.92 496.61" stroke="hsl(228.5, 77.2%, 51.5%)" stroke-width="1.5"></path><path d="M1239.37 390.22L1423.99 378.76" stroke="hsl(228.5, 77.2%, 51.5%)" stroke-width="1.5"></path><path d="M1239.37 390.22L1421.21 520.56" stroke="hsl(228.5, 77.2%, 51.5%)" stroke-width="1.5"></path><path d="M1239.37 390.22L1006.03 382.4" stroke="hsl(228.5, 77.2%, 51.5%)" stroke-width="1.5"></path><path d="M1279.85 704.39L1279.85 704.39" stroke="hsl(228.5, 77.2%, 51.5%)" stroke-width="1.5"></path><path d="M1279.85 704.39L1443.05 663.12" stroke="hsl(228.5, 77.2%, 51.5%)" stroke-width="1.5"></path><path d="M1279.85 704.39L1421.21 520.56" stroke="hsl(228.5, 77.2%, 51.5%)" stroke-width="1.5"></path><path d="M1435.88 106.21L1435.88 106.21" stroke="hsl(228.5, 77.2%, 51.5%)" stroke-width="1.5"></path><path d="M1435.88 106.21L1558.29 67.65" stroke="hsl(228.5, 77.2%, 51.5%)" stroke-width="1.5"></path><path d="M1423.99 378.76L1423.99 378.76" stroke="hsl(228.5, 77.2%, 51.5%)" stroke-width="1.5"></path><path d="M1443.05 663.12L1443.05 663.12" stroke="hsl(228.5, 77.2%, 51.5%)" stroke-width="1.5"></path><path d="M1443.05 663.12L1569.16 646.68" stroke="hsl(228.5, 77.2%, 51.5%)" stroke-width="1.5"></path><path d="M1593.88 -38.93L1593.88 -38.93" stroke="hsl(228.5, 77.2%, 51.5%)" stroke-width="1.5"></path><path d="M1593.88 -38.93L1558.29 67.65" stroke="hsl(228.5, 77.2%, 51.5%)" stroke-width="1.5"></path><path d="M1593.88 -38.93L1415.05 -105.51" stroke="hsl(228.5, 77.2%, 51.5%)" stroke-width="1.5"></path><path d="M1593.88 -38.93L1435.88 106.21" stroke="hsl(228.5, 77.2%, 51.5%)" stroke-width="1.5"></path><path d="M1593.88 -38.93L1553.42 231.81" stroke="hsl(228.5, 77.2%, 51.5%)" stroke-width="1.5"></path><path d="M1593.88 -38.93L1275.26 -62.59" stroke="hsl(228.5, 77.2%, 51.5%)" stroke-width="1.5"></path><path d="M1593.88 -38.93L1438.98 257.69" stroke="hsl(228.5, 77.2%, 51.5%)" stroke-width="1.5"></path><path d="M1558.29 67.65L1558.29 67.65" stroke="hsl(228.5, 77.2%, 51.5%)" stroke-width="1.5"></path><path d="M1558.29 67.65L1553.42 231.81" stroke="hsl(228.5, 77.2%, 51.5%)" stroke-width="1.5"></path><path d="M1553.42 231.81L1553.42 231.81" stroke="hsl(228.5, 77.2%, 51.5%)" stroke-width="1.5"></path><path d="M1553.42 231.81L1583.43 358.3" stroke="hsl(228.5, 77.2%, 51.5%)" stroke-width="1.5"></path><path d="M1553.42 231.81L1435.88 106.21" stroke="hsl(228.5, 77.2%, 51.5%)" stroke-width="1.5"></path><path d="M1553.42 231.81L1423.99 378.76" stroke="hsl(228.5, 77.2%, 51.5%)" stroke-width="1.5"></path><path d="M1583.43 358.3L1583.43 358.3" stroke="hsl(228.5, 77.2%, 51.5%)" stroke-width="1.5"></path><path d="M1583.43 358.3L1423.99 378.76" stroke="hsl(228.5, 77.2%, 51.5%)" stroke-width="1.5"></path><path d="M1583.43 358.3L1567.81 519.21" stroke="hsl(228.5, 77.2%, 51.5%)" stroke-width="1.5"></path><path d="M1567.81 519.21L1567.81 519.21" stroke="hsl(228.5, 77.2%, 51.5%)" stroke-width="1.5"></path><path d="M1567.81 519.21L1569.16 646.68" stroke="hsl(228.5, 77.2%, 51.5%)" stroke-width="1.5"></path><path d="M1567.81 519.21L1443.05 663.12" stroke="hsl(228.5, 77.2%, 51.5%)" stroke-width="1.5"></path><path d="M1567.81 519.21L1423.99 378.76" stroke="hsl(228.5, 77.2%, 51.5%)" stroke-width="1.5"></path><path d="M1567.81 519.21L1553.42 231.81" stroke="hsl(228.5, 77.2%, 51.5%)" stroke-width="1.5"></path><path d="M1569.16 646.68L1569.16 646.68" stroke="hsl(228.5, 77.2%, 51.5%)" stroke-width="1.5"></path><path d="M1569.16 646.68L1421.21 520.56" stroke="hsl(228.5, 77.2%, 51.5%)" stroke-width="1.5"></path><path d="M1569.16 646.68L1583.43 358.3" stroke="hsl(228.5, 77.2%, 51.5%)" stroke-width="1.5"></path><path d="M1569.16 646.68L1279.85 704.39" stroke="hsl(228.5, 77.2%, 51.5%)" stroke-width="1.5"></path><path d="M1569.16 646.68L1423.99 378.76" stroke="hsl(228.5, 77.2%, 51.5%)" stroke-width="1.5"></path><circle r="25" cx="-98.05" cy="705.14" fill="url(#SvgjsRadialGradient1078)"></circle><circle r="25" cx="359.83" cy="488.42" fill="url(#SvgjsRadialGradient1078)"></circle><circle r="25" cx="678.77" cy="530.6" fill="url(#SvgjsRadialGradient1078)"></circle><circle r="25" cx="1006.03" cy="382.4" fill="url(#SvgjsRadialGradient1078)"></circle><circle r="25" cx="1100.81" cy="688.32" fill="url(#SvgjsRadialGradient1078)"></circle><circle r="25" cx="1257.49" cy="217.37" fill="url(#SvgjsRadialGradient1078)"></circle><circle r="25" cx="1415.05" cy="-105.51" fill="url(#SvgjsRadialGradient1078)"></circle><circle r="25" cx="1438.98" cy="257.69" fill="url(#SvgjsRadialGradient1078)"></circle><circle r="25" cx="1421.21" cy="520.56" fill="url(#SvgjsRadialGradient1078)"></circle><circle r="5" cx="-56.23" cy="514.44" fill="#8b9ad9"></circle><circle r="5" cx="85.41" cy="536.09" fill="#8b9ad9"></circle><circle r="5" cx="60.31" cy="700.3" fill="#8b9ad9"></circle><circle r="5" cx="199.56" cy="550.5" fill="#8b9ad9"></circle><circle r="5" cx="189.65" cy="682.3" fill="#8b9ad9"></circle><circle r="5" cx="401.99" cy="667.7" fill="#8b9ad9"></circle><circle r="5" cx="543.83" cy="540.94" fill="#8b9ad9"></circle><circle r="5" cx="646.27" cy="393.51" fill="#8b9ad9"></circle><circle r="5" cx="695.59" cy="675.08" fill="#8b9ad9"></circle><circle r="5" cx="811.73" cy="338.23" fill="#8b9ad9"></circle><circle r="5" cx="826.09" cy="493.67" fill="#8b9ad9"></circle><circle r="5" cx="845.62" cy="689.32" fill="#8b9ad9"></circle><circle r="5" cx="1005.71" cy="252.37" fill="#8b9ad9"></circle><circle r="5" cx="999.73" cy="497.71" fill="#8b9ad9"></circle><circle r="5" cx="981.27" cy="693.84" fill="#8b9ad9"></circle><circle r="5" cx="1160.04" cy="45.11" fill="#8b9ad9"></circle><circle r="5" cx="1098.65" cy="351" fill="#8b9ad9"></circle><circle r="5" cx="1116.92" cy="496.61" fill="#8b9ad9"></circle><circle r="5" cx="1275.26" cy="-62.59" fill="#8b9ad9"></circle><circle r="5" cx="1285.62" cy="109.27" fill="#8b9ad9"></circle><circle r="5" cx="1239.37" cy="390.22" fill="#8b9ad9"></circle><circle r="5" cx="1279.85" cy="704.39" fill="#8b9ad9"></circle><circle r="5" cx="1435.88" cy="106.21" fill="#8b9ad9"></circle><circle r="5" cx="1423.99" cy="378.76" fill="#8b9ad9"></circle><circle r="5" cx="1443.05" cy="663.12" fill="#8b9ad9"></circle><circle r="5" cx="1593.88" cy="-38.93" fill="#8b9ad9"></circle><circle r="5" cx="1558.29" cy="67.65" fill="#8b9ad9"></circle><circle r="5" cx="1553.42" cy="231.81" fill="#8b9ad9"></circle><circle r="5" cx="1583.43" cy="358.3" fill="#8b9ad9"></circle><circle r="5" cx="1567.81" cy="519.21" fill="#8b9ad9"></circle><circle r="5" cx="1569.16" cy="646.68" fill="#8b9ad9"></circle></g><defs><mask id="SvgjsMask1076"><rect width="1440" height="560" fill="#ffffff"></rect></mask><linearGradient x1="15.28%" y1="-39.29%" x2="84.72%" y2="139.29%" gradientUnits="userSpaceOnUse" id="SvgjsLinearGradient1077"><stop stop-color="#0e2a47" offset="0"></stop><stop stop-color="rgba(0, 0, 0, 1)" offset="1"></stop></linearGradient><radialGradient id="SvgjsRadialGradient1078"><stop stop-color="#ffffff" offset="0.1"></stop><stop stop-color="#1735b3" offset="0.2"></stop><stop stop-color="rgba(23, 53, 179, 0)" offset="1"></stop></radialGradient></defs></svg>